<mxfile host="app.diagrams.net" modified="2021-03-16T05:20:24.020Z" agent="5.0 (X11)" etag="7I444Wl1fx4QkBqHcUy6" version="14.4.8" type="github">
  <diagram id="xpGsFGaNRFK6pU6DxcJn" name="Page-1">
    <mxGraphModel dx="2840" dy="1246" grid="1" gridSize="10" guides="1" tooltips="1" connect="1" arrows="1" fold="1" page="1" pageScale="1" pageWidth="850" pageHeight="1100" math="0" shadow="0">
      <root>
        <mxCell id="0" />
        <mxCell id="1" parent="0" />
        <mxCell id="mTXnw6Dvg3BRwb1QRPSY-1" value="Customer" style="shape=umlActor;verticalLabelPosition=bottom;verticalAlign=top;html=1;outlineConnect=0;" parent="1" vertex="1">
          <mxGeometry x="140" y="80" width="30" height="60" as="geometry" />
        </mxCell>
        <mxCell id="mTXnw6Dvg3BRwb1QRPSY-2" value="Employee" style="shape=umlActor;verticalLabelPosition=bottom;verticalAlign=top;html=1;outlineConnect=0;" parent="1" vertex="1">
          <mxGeometry x="230" y="80" width="30" height="60" as="geometry" />
        </mxCell>
        <mxCell id="mTXnw6Dvg3BRwb1QRPSY-41" style="edgeStyle=orthogonalEdgeStyle;rounded=0;orthogonalLoop=1;jettySize=auto;html=1;entryX=0;entryY=0.5;entryDx=0;entryDy=0;" parent="1" target="mTXnw6Dvg3BRwb1QRPSY-38" edge="1">
          <mxGeometry relative="1" as="geometry">
            <mxPoint x="1000.0000000000005" y="1700" as="sourcePoint" />
          </mxGeometry>
        </mxCell>
        <mxCell id="mTXnw6Dvg3BRwb1QRPSY-42" style="edgeStyle=orthogonalEdgeStyle;rounded=0;orthogonalLoop=1;jettySize=auto;html=1;entryX=0;entryY=0.5;entryDx=0;entryDy=0;" parent="1" target="mTXnw6Dvg3BRwb1QRPSY-39" edge="1">
          <mxGeometry relative="1" as="geometry">
            <mxPoint x="1000.0000000000005" y="1700" as="sourcePoint" />
          </mxGeometry>
        </mxCell>
        <mxCell id="mTXnw6Dvg3BRwb1QRPSY-43" style="edgeStyle=orthogonalEdgeStyle;rounded=0;orthogonalLoop=1;jettySize=auto;html=1;entryX=0;entryY=0.5;entryDx=0;entryDy=0;" parent="1" target="mTXnw6Dvg3BRwb1QRPSY-40" edge="1">
          <mxGeometry relative="1" as="geometry">
            <mxPoint x="1000.0000000000005" y="1700" as="sourcePoint" />
          </mxGeometry>
        </mxCell>
        <mxCell id="mTXnw6Dvg3BRwb1QRPSY-3" value="Manager" style="shape=umlActor;verticalLabelPosition=bottom;verticalAlign=top;html=1;outlineConnect=0;" parent="1" vertex="1">
          <mxGeometry x="980" y="1820" width="30" height="60" as="geometry" />
        </mxCell>
        <mxCell id="mTXnw6Dvg3BRwb1QRPSY-19" style="edgeStyle=orthogonalEdgeStyle;rounded=0;orthogonalLoop=1;jettySize=auto;html=1;entryX=0;entryY=0.5;entryDx=0;entryDy=0;" parent="1" source="mTXnw6Dvg3BRwb1QRPSY-5" target="mTXnw6Dvg3BRwb1QRPSY-6" edge="1">
          <mxGeometry relative="1" as="geometry" />
        </mxCell>
        <mxCell id="mTXnw6Dvg3BRwb1QRPSY-20" style="edgeStyle=orthogonalEdgeStyle;rounded=0;orthogonalLoop=1;jettySize=auto;html=1;entryX=0;entryY=0.625;entryDx=0;entryDy=0;entryPerimeter=0;" parent="1" source="mTXnw6Dvg3BRwb1QRPSY-5" target="mTXnw6Dvg3BRwb1QRPSY-7" edge="1">
          <mxGeometry relative="1" as="geometry" />
        </mxCell>
        <mxCell id="mTXnw6Dvg3BRwb1QRPSY-21" style="edgeStyle=orthogonalEdgeStyle;rounded=0;orthogonalLoop=1;jettySize=auto;html=1;entryX=0;entryY=0.5;entryDx=0;entryDy=0;" parent="1" source="mTXnw6Dvg3BRwb1QRPSY-5" target="mTXnw6Dvg3BRwb1QRPSY-8" edge="1">
          <mxGeometry relative="1" as="geometry" />
        </mxCell>
        <mxCell id="mTXnw6Dvg3BRwb1QRPSY-23" style="edgeStyle=orthogonalEdgeStyle;rounded=0;orthogonalLoop=1;jettySize=auto;html=1;entryX=0;entryY=0.5;entryDx=0;entryDy=0;" parent="1" source="mTXnw6Dvg3BRwb1QRPSY-5" target="mTXnw6Dvg3BRwb1QRPSY-18" edge="1">
          <mxGeometry relative="1" as="geometry" />
        </mxCell>
        <mxCell id="mTXnw6Dvg3BRwb1QRPSY-24" style="edgeStyle=orthogonalEdgeStyle;rounded=0;orthogonalLoop=1;jettySize=auto;html=1;entryX=0;entryY=0.5;entryDx=0;entryDy=0;" parent="1" source="mTXnw6Dvg3BRwb1QRPSY-5" target="mTXnw6Dvg3BRwb1QRPSY-16" edge="1">
          <mxGeometry relative="1" as="geometry" />
        </mxCell>
        <mxCell id="DF3n3-SqJ0F8E1Z_hl7M-28" style="edgeStyle=orthogonalEdgeStyle;rounded=0;orthogonalLoop=1;jettySize=auto;html=1;entryX=0;entryY=0.5;entryDx=0;entryDy=0;" edge="1" parent="1" source="mTXnw6Dvg3BRwb1QRPSY-5" target="DF3n3-SqJ0F8E1Z_hl7M-27">
          <mxGeometry relative="1" as="geometry">
            <Array as="points">
              <mxPoint x="1120" y="615" />
              <mxPoint x="1120" y="430" />
            </Array>
          </mxGeometry>
        </mxCell>
        <mxCell id="mTXnw6Dvg3BRwb1QRPSY-5" value="Customer" style="shape=umlActor;verticalLabelPosition=bottom;verticalAlign=top;html=1;outlineConnect=0;" parent="1" vertex="1">
          <mxGeometry x="1040" y="585" width="30" height="60" as="geometry" />
        </mxCell>
        <mxCell id="DF3n3-SqJ0F8E1Z_hl7M-21" style="edgeStyle=orthogonalEdgeStyle;rounded=0;orthogonalLoop=1;jettySize=auto;html=1;exitX=1;exitY=0;exitDx=0;exitDy=0;" edge="1" parent="1" source="mTXnw6Dvg3BRwb1QRPSY-6" target="DF3n3-SqJ0F8E1Z_hl7M-19">
          <mxGeometry relative="1" as="geometry" />
        </mxCell>
        <mxCell id="DF3n3-SqJ0F8E1Z_hl7M-22" style="edgeStyle=orthogonalEdgeStyle;rounded=0;orthogonalLoop=1;jettySize=auto;html=1;exitX=1;exitY=1;exitDx=0;exitDy=0;" edge="1" parent="1" source="mTXnw6Dvg3BRwb1QRPSY-6" target="DF3n3-SqJ0F8E1Z_hl7M-20">
          <mxGeometry relative="1" as="geometry" />
        </mxCell>
        <mxCell id="mTXnw6Dvg3BRwb1QRPSY-6" value="Manage personal account" style="ellipse;whiteSpace=wrap;html=1;" parent="1" vertex="1">
          <mxGeometry x="1160" y="165" width="120" height="80" as="geometry" />
        </mxCell>
        <mxCell id="mTXnw6Dvg3BRwb1QRPSY-7" value="View products" style="ellipse;whiteSpace=wrap;html=1;" parent="1" vertex="1">
          <mxGeometry x="1200" y="285" width="120" height="80" as="geometry" />
        </mxCell>
        <mxCell id="mTXnw6Dvg3BRwb1QRPSY-13" style="edgeStyle=orthogonalEdgeStyle;rounded=0;orthogonalLoop=1;jettySize=auto;html=1;entryX=-0.003;entryY=0.622;entryDx=0;entryDy=0;entryPerimeter=0;" parent="1" source="mTXnw6Dvg3BRwb1QRPSY-8" target="mTXnw6Dvg3BRwb1QRPSY-9" edge="1">
          <mxGeometry relative="1" as="geometry" />
        </mxCell>
        <mxCell id="mTXnw6Dvg3BRwb1QRPSY-14" style="edgeStyle=orthogonalEdgeStyle;rounded=0;orthogonalLoop=1;jettySize=auto;html=1;" parent="1" source="mTXnw6Dvg3BRwb1QRPSY-8" target="mTXnw6Dvg3BRwb1QRPSY-11" edge="1">
          <mxGeometry relative="1" as="geometry" />
        </mxCell>
        <mxCell id="mTXnw6Dvg3BRwb1QRPSY-8" value="Search products" style="ellipse;whiteSpace=wrap;html=1;" parent="1" vertex="1">
          <mxGeometry x="1180" y="575" width="120" height="80" as="geometry" />
        </mxCell>
        <mxCell id="mTXnw6Dvg3BRwb1QRPSY-9" value="Search by name" style="ellipse;whiteSpace=wrap;html=1;" parent="1" vertex="1">
          <mxGeometry x="1360" y="515" width="120" height="80" as="geometry" />
        </mxCell>
        <mxCell id="mTXnw6Dvg3BRwb1QRPSY-11" value="Search by category" style="ellipse;whiteSpace=wrap;html=1;" parent="1" vertex="1">
          <mxGeometry x="1360" y="625" width="120" height="80" as="geometry" />
        </mxCell>
        <mxCell id="mTXnw6Dvg3BRwb1QRPSY-15" value="Place order" style="ellipse;whiteSpace=wrap;html=1;" parent="1" vertex="1">
          <mxGeometry x="1410" y="905" width="120" height="80" as="geometry" />
        </mxCell>
        <mxCell id="mTXnw6Dvg3BRwb1QRPSY-17" style="edgeStyle=orthogonalEdgeStyle;rounded=0;orthogonalLoop=1;jettySize=auto;html=1;" parent="1" source="mTXnw6Dvg3BRwb1QRPSY-16" target="mTXnw6Dvg3BRwb1QRPSY-15" edge="1">
          <mxGeometry relative="1" as="geometry">
            <Array as="points">
              <mxPoint x="1240" y="945" />
            </Array>
          </mxGeometry>
        </mxCell>
        <mxCell id="DF3n3-SqJ0F8E1Z_hl7M-24" style="edgeStyle=orthogonalEdgeStyle;rounded=0;orthogonalLoop=1;jettySize=auto;html=1;" edge="1" parent="1" source="mTXnw6Dvg3BRwb1QRPSY-16" target="DF3n3-SqJ0F8E1Z_hl7M-23">
          <mxGeometry relative="1" as="geometry">
            <Array as="points">
              <mxPoint x="1240" y="760" />
            </Array>
          </mxGeometry>
        </mxCell>
        <mxCell id="DF3n3-SqJ0F8E1Z_hl7M-26" style="edgeStyle=orthogonalEdgeStyle;rounded=0;orthogonalLoop=1;jettySize=auto;html=1;" edge="1" parent="1" source="mTXnw6Dvg3BRwb1QRPSY-16" target="DF3n3-SqJ0F8E1Z_hl7M-25">
          <mxGeometry relative="1" as="geometry" />
        </mxCell>
        <mxCell id="mTXnw6Dvg3BRwb1QRPSY-16" value="Manage cart" style="ellipse;whiteSpace=wrap;html=1;" parent="1" vertex="1">
          <mxGeometry x="1180" y="835" width="120" height="80" as="geometry" />
        </mxCell>
        <mxCell id="mTXnw6Dvg3BRwb1QRPSY-18" value="View history" style="ellipse;whiteSpace=wrap;html=1;" parent="1" vertex="1">
          <mxGeometry x="1180" y="1015" width="120" height="80" as="geometry" />
        </mxCell>
        <mxCell id="mTXnw6Dvg3BRwb1QRPSY-34" style="edgeStyle=orthogonalEdgeStyle;rounded=0;orthogonalLoop=1;jettySize=auto;html=1;" parent="1" source="mTXnw6Dvg3BRwb1QRPSY-27" target="mTXnw6Dvg3BRwb1QRPSY-29" edge="1">
          <mxGeometry relative="1" as="geometry" />
        </mxCell>
        <mxCell id="mTXnw6Dvg3BRwb1QRPSY-35" style="edgeStyle=orthogonalEdgeStyle;rounded=0;orthogonalLoop=1;jettySize=auto;html=1;entryX=0;entryY=0.5;entryDx=0;entryDy=0;" parent="1" source="mTXnw6Dvg3BRwb1QRPSY-27" target="mTXnw6Dvg3BRwb1QRPSY-32" edge="1">
          <mxGeometry relative="1" as="geometry" />
        </mxCell>
        <mxCell id="mTXnw6Dvg3BRwb1QRPSY-27" value="Employee" style="shape=umlActor;verticalLabelPosition=bottom;verticalAlign=top;html=1;outlineConnect=0;" parent="1" vertex="1">
          <mxGeometry x="140" y="1940" width="30" height="60" as="geometry" />
        </mxCell>
        <mxCell id="mTXnw6Dvg3BRwb1QRPSY-31" value="" style="edgeStyle=orthogonalEdgeStyle;rounded=0;orthogonalLoop=1;jettySize=auto;html=1;" parent="1" source="mTXnw6Dvg3BRwb1QRPSY-29" target="mTXnw6Dvg3BRwb1QRPSY-30" edge="1">
          <mxGeometry relative="1" as="geometry">
            <Array as="points">
              <mxPoint x="310" y="1920" />
            </Array>
          </mxGeometry>
        </mxCell>
        <mxCell id="DF3n3-SqJ0F8E1Z_hl7M-31" style="edgeStyle=orthogonalEdgeStyle;rounded=0;orthogonalLoop=1;jettySize=auto;html=1;" edge="1" parent="1" source="mTXnw6Dvg3BRwb1QRPSY-29" target="DF3n3-SqJ0F8E1Z_hl7M-30">
          <mxGeometry relative="1" as="geometry" />
        </mxCell>
        <mxCell id="DF3n3-SqJ0F8E1Z_hl7M-32" style="edgeStyle=orthogonalEdgeStyle;rounded=0;orthogonalLoop=1;jettySize=auto;html=1;entryX=0;entryY=0.5;entryDx=0;entryDy=0;" edge="1" parent="1" source="mTXnw6Dvg3BRwb1QRPSY-29" target="DF3n3-SqJ0F8E1Z_hl7M-29">
          <mxGeometry relative="1" as="geometry" />
        </mxCell>
        <mxCell id="mTXnw6Dvg3BRwb1QRPSY-29" value="Manage order line" style="ellipse;whiteSpace=wrap;html=1;" parent="1" vertex="1">
          <mxGeometry x="220" y="1760" width="120" height="80" as="geometry" />
        </mxCell>
        <mxCell id="mTXnw6Dvg3BRwb1QRPSY-30" value="Confirm order" style="ellipse;whiteSpace=wrap;html=1;" parent="1" vertex="1">
          <mxGeometry x="440" y="1880" width="120" height="80" as="geometry" />
        </mxCell>
        <mxCell id="mTXnw6Dvg3BRwb1QRPSY-32" value="Check nearly exprire products" style="ellipse;whiteSpace=wrap;html=1;" parent="1" vertex="1">
          <mxGeometry x="390" y="2060" width="120" height="80" as="geometry" />
        </mxCell>
        <mxCell id="mTXnw6Dvg3BRwb1QRPSY-36" value="Manager" style="shape=umlActor;verticalLabelPosition=bottom;verticalAlign=top;html=1;outlineConnect=0;" parent="1" vertex="1">
          <mxGeometry x="140" y="200" width="30" height="60" as="geometry" />
        </mxCell>
        <mxCell id="DF3n3-SqJ0F8E1Z_hl7M-37" style="edgeStyle=orthogonalEdgeStyle;rounded=0;orthogonalLoop=1;jettySize=auto;html=1;exitX=1;exitY=0;exitDx=0;exitDy=0;entryX=0;entryY=0.5;entryDx=0;entryDy=0;" edge="1" parent="1" source="mTXnw6Dvg3BRwb1QRPSY-38" target="DF3n3-SqJ0F8E1Z_hl7M-33">
          <mxGeometry relative="1" as="geometry" />
        </mxCell>
        <mxCell id="DF3n3-SqJ0F8E1Z_hl7M-38" style="edgeStyle=orthogonalEdgeStyle;rounded=0;orthogonalLoop=1;jettySize=auto;html=1;exitX=1;exitY=0;exitDx=0;exitDy=0;entryX=0;entryY=0.5;entryDx=0;entryDy=0;" edge="1" parent="1" source="mTXnw6Dvg3BRwb1QRPSY-38" target="DF3n3-SqJ0F8E1Z_hl7M-34">
          <mxGeometry relative="1" as="geometry" />
        </mxCell>
        <mxCell id="DF3n3-SqJ0F8E1Z_hl7M-39" style="edgeStyle=orthogonalEdgeStyle;rounded=0;orthogonalLoop=1;jettySize=auto;html=1;exitX=1;exitY=0.5;exitDx=0;exitDy=0;" edge="1" parent="1" source="mTXnw6Dvg3BRwb1QRPSY-38" target="DF3n3-SqJ0F8E1Z_hl7M-35">
          <mxGeometry relative="1" as="geometry" />
        </mxCell>
        <mxCell id="DF3n3-SqJ0F8E1Z_hl7M-40" style="edgeStyle=orthogonalEdgeStyle;rounded=0;orthogonalLoop=1;jettySize=auto;html=1;entryX=0;entryY=0.5;entryDx=0;entryDy=0;" edge="1" parent="1" source="mTXnw6Dvg3BRwb1QRPSY-38" target="DF3n3-SqJ0F8E1Z_hl7M-36">
          <mxGeometry relative="1" as="geometry" />
        </mxCell>
        <mxCell id="DF3n3-SqJ0F8E1Z_hl7M-55" style="edgeStyle=orthogonalEdgeStyle;rounded=0;orthogonalLoop=1;jettySize=auto;html=1;exitX=0.5;exitY=0;exitDx=0;exitDy=0;entryX=0;entryY=0.5;entryDx=0;entryDy=0;" edge="1" parent="1" source="mTXnw6Dvg3BRwb1QRPSY-38" target="DF3n3-SqJ0F8E1Z_hl7M-52">
          <mxGeometry relative="1" as="geometry" />
        </mxCell>
        <mxCell id="DF3n3-SqJ0F8E1Z_hl7M-56" style="edgeStyle=orthogonalEdgeStyle;rounded=0;orthogonalLoop=1;jettySize=auto;html=1;entryX=0;entryY=0.5;entryDx=0;entryDy=0;" edge="1" parent="1" source="mTXnw6Dvg3BRwb1QRPSY-38" target="DF3n3-SqJ0F8E1Z_hl7M-51">
          <mxGeometry relative="1" as="geometry">
            <Array as="points">
              <mxPoint x="1140" y="1220" />
            </Array>
          </mxGeometry>
        </mxCell>
        <mxCell id="mTXnw6Dvg3BRwb1QRPSY-38" value="Manage products" style="ellipse;whiteSpace=wrap;html=1;" parent="1" vertex="1">
          <mxGeometry x="1070" y="1430" width="120" height="80" as="geometry" />
        </mxCell>
        <mxCell id="DF3n3-SqJ0F8E1Z_hl7M-45" style="edgeStyle=orthogonalEdgeStyle;rounded=0;orthogonalLoop=1;jettySize=auto;html=1;exitX=1;exitY=0;exitDx=0;exitDy=0;entryX=0;entryY=0.5;entryDx=0;entryDy=0;" edge="1" parent="1" source="mTXnw6Dvg3BRwb1QRPSY-39" target="DF3n3-SqJ0F8E1Z_hl7M-41">
          <mxGeometry relative="1" as="geometry" />
        </mxCell>
        <mxCell id="DF3n3-SqJ0F8E1Z_hl7M-46" style="edgeStyle=orthogonalEdgeStyle;rounded=0;orthogonalLoop=1;jettySize=auto;html=1;exitX=1;exitY=0.5;exitDx=0;exitDy=0;" edge="1" parent="1" source="mTXnw6Dvg3BRwb1QRPSY-39" target="DF3n3-SqJ0F8E1Z_hl7M-42">
          <mxGeometry relative="1" as="geometry" />
        </mxCell>
        <mxCell id="DF3n3-SqJ0F8E1Z_hl7M-47" style="edgeStyle=orthogonalEdgeStyle;rounded=0;orthogonalLoop=1;jettySize=auto;html=1;exitX=1;exitY=1;exitDx=0;exitDy=0;entryX=0;entryY=0.5;entryDx=0;entryDy=0;" edge="1" parent="1" source="mTXnw6Dvg3BRwb1QRPSY-39" target="DF3n3-SqJ0F8E1Z_hl7M-43">
          <mxGeometry relative="1" as="geometry" />
        </mxCell>
        <mxCell id="DF3n3-SqJ0F8E1Z_hl7M-48" style="edgeStyle=orthogonalEdgeStyle;rounded=0;orthogonalLoop=1;jettySize=auto;html=1;exitX=0.5;exitY=1;exitDx=0;exitDy=0;entryX=0;entryY=0.5;entryDx=0;entryDy=0;" edge="1" parent="1" source="mTXnw6Dvg3BRwb1QRPSY-39" target="DF3n3-SqJ0F8E1Z_hl7M-44">
          <mxGeometry relative="1" as="geometry" />
        </mxCell>
        <mxCell id="mTXnw6Dvg3BRwb1QRPSY-39" value="Manage accounts" style="ellipse;whiteSpace=wrap;html=1;" parent="1" vertex="1">
          <mxGeometry x="1070" y="1680" width="120" height="80" as="geometry" />
        </mxCell>
        <mxCell id="mTXnw6Dvg3BRwb1QRPSY-40" value="Put product on sale" style="ellipse;whiteSpace=wrap;html=1;" parent="1" vertex="1">
          <mxGeometry x="1070" y="2070" width="120" height="80" as="geometry" />
        </mxCell>
        <mxCell id="DF3n3-SqJ0F8E1Z_hl7M-1" value="Sign in" style="ellipse;whiteSpace=wrap;html=1;" vertex="1" parent="1">
          <mxGeometry x="315" y="1200" width="120" height="60" as="geometry" />
        </mxCell>
        <mxCell id="DF3n3-SqJ0F8E1Z_hl7M-2" value="Guest" style="shape=umlActor;verticalLabelPosition=bottom;verticalAlign=top;html=1;" vertex="1" parent="1">
          <mxGeometry x="230" y="200" width="30" height="60" as="geometry" />
        </mxCell>
        <mxCell id="DF3n3-SqJ0F8E1Z_hl7M-9" style="edgeStyle=orthogonalEdgeStyle;rounded=0;orthogonalLoop=1;jettySize=auto;html=1;entryX=0;entryY=0.5;entryDx=0;entryDy=0;" edge="1" parent="1" source="DF3n3-SqJ0F8E1Z_hl7M-3" target="DF3n3-SqJ0F8E1Z_hl7M-1">
          <mxGeometry relative="1" as="geometry">
            <Array as="points">
              <mxPoint x="135" y="1230" />
            </Array>
          </mxGeometry>
        </mxCell>
        <mxCell id="DF3n3-SqJ0F8E1Z_hl7M-10" style="edgeStyle=orthogonalEdgeStyle;rounded=0;orthogonalLoop=1;jettySize=auto;html=1;entryX=0;entryY=0.5;entryDx=0;entryDy=0;" edge="1" parent="1" source="DF3n3-SqJ0F8E1Z_hl7M-3" target="DF3n3-SqJ0F8E1Z_hl7M-4">
          <mxGeometry relative="1" as="geometry">
            <Array as="points">
              <mxPoint x="135" y="1320" />
            </Array>
          </mxGeometry>
        </mxCell>
        <mxCell id="DF3n3-SqJ0F8E1Z_hl7M-11" style="edgeStyle=orthogonalEdgeStyle;rounded=0;orthogonalLoop=1;jettySize=auto;html=1;" edge="1" parent="1" source="DF3n3-SqJ0F8E1Z_hl7M-3" target="DF3n3-SqJ0F8E1Z_hl7M-5">
          <mxGeometry relative="1" as="geometry">
            <Array as="points">
              <mxPoint x="135" y="1475" />
            </Array>
          </mxGeometry>
        </mxCell>
        <mxCell id="DF3n3-SqJ0F8E1Z_hl7M-12" style="edgeStyle=orthogonalEdgeStyle;rounded=0;orthogonalLoop=1;jettySize=auto;html=1;entryX=0;entryY=0.5;entryDx=0;entryDy=0;" edge="1" parent="1" source="DF3n3-SqJ0F8E1Z_hl7M-3" target="DF3n3-SqJ0F8E1Z_hl7M-6">
          <mxGeometry relative="1" as="geometry">
            <Array as="points">
              <mxPoint x="135" y="1570" />
            </Array>
          </mxGeometry>
        </mxCell>
        <mxCell id="DF3n3-SqJ0F8E1Z_hl7M-13" style="edgeStyle=orthogonalEdgeStyle;rounded=0;orthogonalLoop=1;jettySize=auto;html=1;entryX=0;entryY=0.5;entryDx=0;entryDy=0;" edge="1" parent="1" source="DF3n3-SqJ0F8E1Z_hl7M-3" target="DF3n3-SqJ0F8E1Z_hl7M-7">
          <mxGeometry relative="1" as="geometry" />
        </mxCell>
        <mxCell id="DF3n3-SqJ0F8E1Z_hl7M-14" style="edgeStyle=orthogonalEdgeStyle;rounded=0;orthogonalLoop=1;jettySize=auto;html=1;" edge="1" parent="1" source="DF3n3-SqJ0F8E1Z_hl7M-3" target="DF3n3-SqJ0F8E1Z_hl7M-8">
          <mxGeometry relative="1" as="geometry">
            <Array as="points">
              <mxPoint x="135" y="1530" />
              <mxPoint x="560" y="1530" />
            </Array>
          </mxGeometry>
        </mxCell>
        <mxCell id="DF3n3-SqJ0F8E1Z_hl7M-3" value="Guest" style="shape=umlActor;verticalLabelPosition=bottom;verticalAlign=top;html=1;" vertex="1" parent="1">
          <mxGeometry x="120" y="1380" width="30" height="60" as="geometry" />
        </mxCell>
        <mxCell id="DF3n3-SqJ0F8E1Z_hl7M-4" value="Sign up" style="ellipse;whiteSpace=wrap;html=1;" vertex="1" parent="1">
          <mxGeometry x="330" y="1290" width="120" height="60" as="geometry" />
        </mxCell>
        <mxCell id="DF3n3-SqJ0F8E1Z_hl7M-5" value="View products" style="ellipse;whiteSpace=wrap;html=1;" vertex="1" parent="1">
          <mxGeometry x="310" y="1445" width="120" height="60" as="geometry" />
        </mxCell>
        <mxCell id="DF3n3-SqJ0F8E1Z_hl7M-6" value="View product details" style="ellipse;whiteSpace=wrap;html=1;" vertex="1" parent="1">
          <mxGeometry x="320" y="1540" width="120" height="60" as="geometry" />
        </mxCell>
        <mxCell id="DF3n3-SqJ0F8E1Z_hl7M-17" style="edgeStyle=orthogonalEdgeStyle;rounded=0;orthogonalLoop=1;jettySize=auto;html=1;exitX=1;exitY=0;exitDx=0;exitDy=0;entryX=0;entryY=0.5;entryDx=0;entryDy=0;" edge="1" parent="1" source="DF3n3-SqJ0F8E1Z_hl7M-7" target="DF3n3-SqJ0F8E1Z_hl7M-15">
          <mxGeometry relative="1" as="geometry" />
        </mxCell>
        <mxCell id="DF3n3-SqJ0F8E1Z_hl7M-18" style="edgeStyle=orthogonalEdgeStyle;rounded=0;orthogonalLoop=1;jettySize=auto;html=1;exitX=1;exitY=1;exitDx=0;exitDy=0;entryX=0;entryY=0.5;entryDx=0;entryDy=0;" edge="1" parent="1" source="DF3n3-SqJ0F8E1Z_hl7M-7" target="DF3n3-SqJ0F8E1Z_hl7M-16">
          <mxGeometry relative="1" as="geometry" />
        </mxCell>
        <mxCell id="DF3n3-SqJ0F8E1Z_hl7M-7" value="Search product" style="ellipse;whiteSpace=wrap;html=1;" vertex="1" parent="1">
          <mxGeometry x="410" y="1375" width="140" height="70" as="geometry" />
        </mxCell>
        <mxCell id="DF3n3-SqJ0F8E1Z_hl7M-8" value="Sort product" style="ellipse;whiteSpace=wrap;html=1;" vertex="1" parent="1">
          <mxGeometry x="530" y="1490" width="140" height="70" as="geometry" />
        </mxCell>
        <mxCell id="DF3n3-SqJ0F8E1Z_hl7M-15" value="Search by name" style="ellipse;whiteSpace=wrap;html=1;" vertex="1" parent="1">
          <mxGeometry x="590" y="1300" width="120" height="80" as="geometry" />
        </mxCell>
        <mxCell id="DF3n3-SqJ0F8E1Z_hl7M-16" value="Search by category" style="ellipse;whiteSpace=wrap;html=1;" vertex="1" parent="1">
          <mxGeometry x="590" y="1410" width="120" height="80" as="geometry" />
        </mxCell>
        <mxCell id="DF3n3-SqJ0F8E1Z_hl7M-19" value="View personal info" style="ellipse;whiteSpace=wrap;html=1;" vertex="1" parent="1">
          <mxGeometry x="1320" y="85" width="140" height="70" as="geometry" />
        </mxCell>
        <mxCell id="DF3n3-SqJ0F8E1Z_hl7M-20" value="Edit personal info" style="ellipse;whiteSpace=wrap;html=1;" vertex="1" parent="1">
          <mxGeometry x="1400" y="185" width="140" height="70" as="geometry" />
        </mxCell>
        <mxCell id="DF3n3-SqJ0F8E1Z_hl7M-23" value="View cart" style="ellipse;whiteSpace=wrap;html=1;" vertex="1" parent="1">
          <mxGeometry x="1320" y="725" width="140" height="70" as="geometry" />
        </mxCell>
        <mxCell id="DF3n3-SqJ0F8E1Z_hl7M-25" value="Edit cart content" style="ellipse;whiteSpace=wrap;html=1;" vertex="1" parent="1">
          <mxGeometry x="1370" y="815" width="140" height="70" as="geometry" />
        </mxCell>
        <mxCell id="DF3n3-SqJ0F8E1Z_hl7M-27" value="Sort product" style="ellipse;whiteSpace=wrap;html=1;" vertex="1" parent="1">
          <mxGeometry x="1270" y="395" width="140" height="70" as="geometry" />
        </mxCell>
        <mxCell id="DF3n3-SqJ0F8E1Z_hl7M-29" value="View orders" style="ellipse;whiteSpace=wrap;html=1;" vertex="1" parent="1">
          <mxGeometry x="425" y="1675" width="140" height="70" as="geometry" />
        </mxCell>
        <mxCell id="DF3n3-SqJ0F8E1Z_hl7M-30" value="View order details" style="ellipse;whiteSpace=wrap;html=1;" vertex="1" parent="1">
          <mxGeometry x="430" y="1780" width="140" height="70" as="geometry" />
        </mxCell>
        <mxCell id="DF3n3-SqJ0F8E1Z_hl7M-33" value="View products" style="ellipse;whiteSpace=wrap;html=1;" vertex="1" parent="1">
          <mxGeometry x="1270" y="1270" width="140" height="70" as="geometry" />
        </mxCell>
        <mxCell id="DF3n3-SqJ0F8E1Z_hl7M-34" value="View product details" style="ellipse;whiteSpace=wrap;html=1;" vertex="1" parent="1">
          <mxGeometry x="1270" y="1360" width="140" height="70" as="geometry" />
        </mxCell>
        <mxCell id="DF3n3-SqJ0F8E1Z_hl7M-35" value="Edit product details" style="ellipse;whiteSpace=wrap;html=1;" vertex="1" parent="1">
          <mxGeometry x="1280" y="1450" width="140" height="70" as="geometry" />
        </mxCell>
        <mxCell id="DF3n3-SqJ0F8E1Z_hl7M-36" value="Delete product" style="ellipse;whiteSpace=wrap;html=1;" vertex="1" parent="1">
          <mxGeometry x="1280" y="1550" width="140" height="70" as="geometry" />
        </mxCell>
        <mxCell id="DF3n3-SqJ0F8E1Z_hl7M-41" value="View accounts" style="ellipse;whiteSpace=wrap;html=1;" vertex="1" parent="1">
          <mxGeometry x="1280" y="1650" width="140" height="70" as="geometry" />
        </mxCell>
        <mxCell id="DF3n3-SqJ0F8E1Z_hl7M-42" value="View account details" style="ellipse;whiteSpace=wrap;html=1;" vertex="1" parent="1">
          <mxGeometry x="1290" y="1730" width="140" height="70" as="geometry" />
        </mxCell>
        <mxCell id="DF3n3-SqJ0F8E1Z_hl7M-43" value="Edit account details" style="ellipse;whiteSpace=wrap;html=1;" vertex="1" parent="1">
          <mxGeometry x="1290" y="1820" width="140" height="70" as="geometry" />
        </mxCell>
        <mxCell id="DF3n3-SqJ0F8E1Z_hl7M-44" value="Delete account" style="ellipse;whiteSpace=wrap;html=1;" vertex="1" parent="1">
          <mxGeometry x="1290" y="1910" width="140" height="70" as="geometry" />
        </mxCell>
        <mxCell id="DF3n3-SqJ0F8E1Z_hl7M-49" style="edgeStyle=orthogonalEdgeStyle;rounded=0;orthogonalLoop=1;jettySize=auto;html=1;exitX=1;exitY=0;exitDx=0;exitDy=0;entryX=0;entryY=0.5;entryDx=0;entryDy=0;" edge="1" parent="1" source="DF3n3-SqJ0F8E1Z_hl7M-51" target="DF3n3-SqJ0F8E1Z_hl7M-53">
          <mxGeometry relative="1" as="geometry" />
        </mxCell>
        <mxCell id="DF3n3-SqJ0F8E1Z_hl7M-50" style="edgeStyle=orthogonalEdgeStyle;rounded=0;orthogonalLoop=1;jettySize=auto;html=1;exitX=1;exitY=1;exitDx=0;exitDy=0;entryX=0;entryY=0.5;entryDx=0;entryDy=0;" edge="1" parent="1" source="DF3n3-SqJ0F8E1Z_hl7M-51" target="DF3n3-SqJ0F8E1Z_hl7M-54">
          <mxGeometry relative="1" as="geometry" />
        </mxCell>
        <mxCell id="DF3n3-SqJ0F8E1Z_hl7M-51" value="Search product" style="ellipse;whiteSpace=wrap;html=1;" vertex="1" parent="1">
          <mxGeometry x="1310" y="1185" width="140" height="70" as="geometry" />
        </mxCell>
        <mxCell id="DF3n3-SqJ0F8E1Z_hl7M-52" value="Sort product" style="ellipse;whiteSpace=wrap;html=1;" vertex="1" parent="1">
          <mxGeometry x="1280" y="1080" width="140" height="70" as="geometry" />
        </mxCell>
        <mxCell id="DF3n3-SqJ0F8E1Z_hl7M-53" value="Search by name" style="ellipse;whiteSpace=wrap;html=1;" vertex="1" parent="1">
          <mxGeometry x="1490" y="1110" width="120" height="80" as="geometry" />
        </mxCell>
        <mxCell id="DF3n3-SqJ0F8E1Z_hl7M-54" value="Search by category" style="ellipse;whiteSpace=wrap;html=1;" vertex="1" parent="1">
          <mxGeometry x="1490" y="1220" width="120" height="80" as="geometry" />
        </mxCell>
      </root>
    </mxGraphModel>
  </diagram>
</mxfile>
